<svg width="1280" height="800" viewBox="0 0 1280 800" fill="none" xmlns="http://www.w3.org/2000/svg">
<g clip-path="url(#clip0)">
<rect width="1280" height="800" fill="white"/>
<rect width="1280" height="800" fill="#AEB9F4" fill-opacity="0.24"/>
<g clip-path="url(#clip1)">
<path d="M1310.41 553.861C1388.75 553.861 1452.25 490.384 1452.25 412.081C1452.25 333.778 1388.75 270.301 1310.41 270.301C1232.08 270.301 1168.58 333.778 1168.58 412.081C1168.58 490.384 1232.08 553.861 1310.41 553.861Z" fill="#FCE095"/>
<path d="M68 732C114.944 732 153 693.944 153 647C153 600.056 114.944 562 68 562C21.0558 562 -17 600.056 -17 647C-17 693.944 21.0558 732 68 732Z" fill="#FCE095"/>
<path d="M357.126 729.127C327.107 704.559 286.032 709.962 250.184 713.562C212.162 717.383 171.505 720.44 135.167 705.663C109.066 695.054 90.7422 677.811 83.3838 650.049C75.7685 621.313 73.4631 591.694 58.8717 565.125C34.288 520.341 -7.35388 506.597 -52 507.009V914.456H364.359C395.811 854.494 415.563 776.944 357.126 729.127Z" fill="#FCD260"/>
<path d="M1347 351.726C1549.13 351.726 1713 187.923 1713 -14.1372C1713 -216.198 1549.13 -380 1347 -380C1144.86 -380 980.995 -216.198 980.995 -14.1372C980.995 187.923 1144.86 351.726 1347 351.726Z" fill="#FCD260"/>
</g>
</g>
<defs>
<clipPath id="clip0">
<rect width="1280" height="800" fill="white"/>
</clipPath>
<clipPath id="clip1">
<rect x="-52" y="-380" width="1765" height="1275" fill="white"/>
</clipPath>
</defs>
</svg>
