<svg width="1280" height="800" viewBox="0 0 1280 800" fill="none" xmlns="http://www.w3.org/2000/svg">
<g clip-path="url(#clip0)">
<path d="M0 0H1280V800H0V0Z" fill="white"/>
<rect width="1280" height="800" fill="#ECEEFD"/>
<path d="M1331 345.726C1533.14 345.726 1697.01 181.923 1697.01 -20.1372C1697.01 -222.198 1533.14 -386 1331 -386C1128.86 -386 965 -222.198 965 -20.1372C965 181.923 1128.86 345.726 1331 345.726Z" fill="#FCD260"/>
<circle cx="1121" cy="45" r="65" fill="#52D7C6"/>
<circle cx="1200" cy="54" r="38" fill="#A9B0F0"/>
<path d="M242.834 740.279C224.283 723.215 198.9 726.968 176.746 729.469C153.248 732.123 128.123 734.246 105.667 723.982C89.5369 716.614 78.2128 704.638 73.6654 685.355C68.9593 665.397 67.5345 644.824 58.5172 626.371C43.3248 595.266 17.5907 585.72 -10 586.006V869H247.304C266.741 827.354 278.948 773.491 242.834 740.279Z" fill="#FCD260"/>
</g>
<defs>
<clipPath id="clip0">
<path d="M0 0H1280V800H0V0Z" fill="white"/>
</clipPath>
</defs>
</svg>
