<svg width="1280" height="800" viewBox="0 0 1280 800" fill="none" xmlns="http://www.w3.org/2000/svg">
<g clip-path="url(#clip0)">
<path d="M0 0H1280V800H0V0Z" fill="#ECEEFD"/>
<circle cx="927.694" cy="212.694" r="430" transform="rotate(-55.0967 927.694 212.694)" fill="#52D7C6"/>
<path d="M252.834 751.279C234.283 734.215 208.9 737.968 186.746 740.469C163.248 743.123 138.123 745.246 115.667 734.982C99.5369 727.614 88.2128 715.638 83.6654 696.355C78.9593 676.397 77.5345 655.824 68.5172 637.371C53.3248 606.266 27.5907 596.72 0 597.006V880H257.304C276.741 838.354 288.948 784.491 252.834 751.279Z" fill="#FCD260"/>
</g>
<defs>
<clipPath id="clip0">
<path d="M0 0H1280V800H0V0Z" fill="white"/>
</clipPath>
</defs>
</svg>
