<svg width="51" height="48" viewBox="0 0 51 48" fill="none" xmlns="http://www.w3.org/2000/svg">
<path opacity="0.99" d="M22.6468 2.78116C23.5449 0.0172276 27.4551 0.0172224 28.3532 2.78115L32.1232 14.384C32.5248 15.6201 33.6767 16.4569 34.9763 16.4569H47.1763C50.0825 16.4569 51.2908 20.1758 48.9396 21.884L39.0697 29.055C38.0182 29.8189 37.5782 31.173 37.9799 32.4091L41.7498 44.0119C42.6479 46.7758 39.4845 49.0742 37.1333 47.366L27.2634 40.195C26.2119 39.4311 24.7881 39.4311 23.7366 40.195L13.8667 47.366C11.5155 49.0742 8.35209 46.7758 9.25015 44.0119L13.0201 32.4091C13.4218 31.173 12.9818 29.8189 11.9303 29.055L2.06036 21.884C-0.290779 20.1758 0.917543 16.4569 3.82371 16.4569H16.0237C17.3233 16.4569 18.4752 15.6201 18.8768 14.384L22.6468 2.78116Z" fill="#FCD260"/>
</svg>
