<svg width="56" height="45" viewBox="0 0 56 45" fill="none" xmlns="http://www.w3.org/2000/svg">
<g clip-path="url(#clip0)">
<path d="M-9.34551e-05 21.962C0.437407 21.4024 0.820215 20.7891 1.32334 20.2941C7.48115 14.2037 13.6608 8.13487 19.8515 2.07677C20.2452 1.68939 20.7812 1.32353 21.3062 1.20517C22.728 0.893118 23.964 1.92612 23.9858 3.43257C24.0187 5.40173 23.9968 7.38164 23.9968 9.35079C23.9968 10.5344 23.9968 11.7181 23.9968 12.9017C23.9968 13.0739 23.9968 13.2568 23.9968 13.4935C24.5108 13.4935 24.9593 13.4935 25.4187 13.4935C30.1437 13.4935 34.8577 13.4935 39.5827 13.4935C41.3983 13.4935 42.3062 14.3974 42.3062 16.1729C42.2952 20.3694 42.3062 24.566 42.3062 28.7626C42.3062 29.5588 42.1858 30.2905 41.5515 30.8716C41.0155 31.3558 40.3921 31.5065 39.6921 31.5065C34.6827 31.5065 29.6624 31.5065 24.653 31.5065C24.4562 31.5065 24.2593 31.5065 23.9968 31.5065C23.9968 32.5825 23.9968 33.6047 23.9968 34.6162C23.9968 36.8974 24.0077 39.1679 23.9858 41.4491C23.9749 42.9986 22.8155 44.0638 21.3499 43.7948C20.8358 43.698 20.2999 43.3644 19.9171 42.9986C15.5093 38.7052 11.1452 34.3902 6.75928 30.0753C4.94365 28.2891 3.10616 26.5136 1.31241 24.7059C0.820219 24.2001 0.42647 23.5976 -0.0110303 23.038C-9.35172e-05 22.6722 -9.34862e-05 22.3171 -9.34551e-05 21.962Z" fill="#FCD260"/>
<path d="M56 35.9504C55.8032 36.7467 55.661 37.5645 55.3875 38.3285C53.9985 42.1592 50.3016 44.8708 46.1672 44.9569C42.2516 45.043 38.325 44.9892 34.4094 44.9784C33.6766 44.9784 33.2063 44.5803 33.1625 43.8916C33.1188 43.1599 33.1079 42.4174 33.1625 41.6965C33.2391 40.7711 33.6 40.4806 34.5516 40.4806C38.2375 40.4806 41.9125 40.4806 45.5985 40.4698C48.1907 40.459 50.3782 38.9526 51.1329 36.6176C51.3297 36.0042 51.4063 35.3156 51.4063 34.6592C51.4282 26.5566 51.3844 18.4433 51.4391 10.3407C51.461 7.2632 49.1751 5.1434 47.1844 4.70223C46.6157 4.58386 46.0251 4.53006 45.4563 4.5193C41.9563 4.49778 38.4563 4.50854 34.9563 4.50854C34.6829 4.50854 34.4094 4.50854 34.136 4.45474C33.6329 4.35789 33.1954 4.15345 33.1954 3.5401C33.1844 2.72231 33.1297 1.89376 33.1954 1.07597C33.261 0.279699 33.6438 -7.062e-05 34.4751 -7.05473e-05C38.1938 -7.02222e-05 41.9126 -0.0323499 45.6313 -6.9572e-05C50.2797 0.0429721 54.0094 2.67927 55.5079 6.96191C55.7376 7.62905 55.8469 8.33924 56.011 9.03867C56.0001 18.0128 56.0001 26.9763 56 35.9504Z" fill="#FCD260"/>
</g>
<defs>
<clipPath id="clip0">
<rect x="56" y="45" width="56" height="45" transform="rotate(-180 56 45)" fill="white"/>
</clipPath>
</defs>
</svg>
