<svg width="37" height="35" viewBox="0 0 37 35" fill="none" xmlns="http://www.w3.org/2000/svg">
<path d="M22.9729 22.1337C22.8395 22.1277 22.7425 22.1159 22.6394 22.1159C20.1104 22.1159 17.5876 22.1218 15.0586 22.11C14.7615 22.11 14.713 22.2107 14.719 22.4655C14.7251 25.9916 14.7251 29.5177 14.7251 33.0438C14.7251 33.8319 14.4401 34.4601 13.6881 34.8038C13.4212 34.9224 13.1059 34.9876 12.8087 34.9876C10.7285 35.0053 8.64232 34.9994 6.56217 34.9935C5.37958 34.9876 4.63363 34.2409 4.63363 33.0556C4.62757 30.1696 4.63363 27.2894 4.63363 24.4034C4.63363 22.1929 4.63363 19.9765 4.63363 17.7661C4.63363 17.6594 4.63363 17.5527 4.63363 17.3927C4.53054 17.4638 4.46989 17.4994 4.41531 17.5468C4.08782 17.8313 3.77246 18.1157 3.44498 18.3943C2.75361 18.9809 1.78328 18.975 1.09192 18.3883C0.909981 18.2342 0.740173 18.0624 0.570365 17.8905C-0.211966 17.0846 -0.187708 16.0475 0.649204 15.3008C2.414 13.7126 4.17879 12.1362 5.94358 10.5539C9.63085 7.25304 13.3181 3.94624 17.0054 0.639429C17.9393 -0.196162 19.0431 -0.225793 20.0013 0.592019C24.5315 4.46774 29.0678 8.34939 33.5981 12.2251C34.4714 12.9718 35.3507 13.7185 36.224 14.4652C37.2004 15.3008 37.2671 16.2964 36.3817 17.2209C36.0603 17.5587 35.7146 17.8905 35.3265 18.1394C34.7261 18.5246 34.3622 18.4594 33.8285 18.0031C33.6769 17.8787 33.5253 17.7483 33.313 17.5705C33.313 17.7542 33.313 17.8668 33.313 17.9794C33.313 22.9989 33.307 28.0124 33.3191 33.0319C33.3191 33.6838 33.1311 34.2349 32.5853 34.6379C32.2396 34.8927 31.8454 34.9876 31.4209 34.9935C29.2073 34.9935 26.9937 34.9994 24.7802 34.9935C23.6461 34.9876 22.979 34.306 22.979 33.1386C22.9729 29.6007 22.979 26.0687 22.979 22.5307C22.9729 22.4122 22.9729 22.2996 22.9729 22.1337Z" fill="#5F659C"/>
</svg>
