<svg width="1280" height="800" viewBox="0 0 1280 800" fill="none" xmlns="http://www.w3.org/2000/svg">
<g clip-path="url(#clip0)">
<path d="M0 0H1280V800H0V0Z" fill="#ECEEFD"/>
<path d="M63.7206 214.834C80.7846 196.283 77.0318 170.899 74.5313 148.746C71.8774 125.248 69.7542 100.123 80.0175 77.6669C87.3864 61.5369 99.3623 50.2128 118.645 45.6654C138.603 40.9593 159.176 39.5345 177.629 30.5172C208.734 15.3248 218.28 -10.4093 217.994 -38L-65 -38L-65 219.304C-23.3538 238.741 30.5089 250.948 63.7206 214.834Z" fill="#FCD260"/>
<path d="M879.364 701.284C931.479 896.588 1131.99 1012.68 1327.22 960.585C1522.45 908.49 1638.47 707.933 1586.35 512.629C1534.24 317.325 1333.72 201.232 1138.49 253.328C943.265 305.423 827.248 505.98 879.364 701.284Z" fill="#52D7C6"/>
<circle cx="554.982" cy="171.982" r="89.8904" transform="rotate(113.138 554.982 171.982)" fill="#FCD260"/>
<circle cx="572.395" cy="250.395" r="51.3483" transform="rotate(113.138 572.395 250.395)" fill="#A9B0F0"/>
<path d="M879.364 701.284C931.479 896.588 1131.99 1012.68 1327.22 960.585C1522.45 908.49 1638.47 707.933 1586.35 512.629C1534.24 317.325 1333.72 201.232 1138.49 253.328C943.265 305.423 827.248 505.98 879.364 701.284Z" fill="#52D7C6"/>
<circle cx="1233.31" cy="217.313" r="65" transform="rotate(113.138 1233.31 217.313)" fill="#FCD260"/>
<circle cx="1243.75" cy="158.754" r="22.6692" transform="rotate(113.138 1243.75 158.754)" fill="#A9B0F0"/>
</g>
<defs>
<clipPath id="clip0">
<path d="M0 0H1280V800H0V0Z" fill="white"/>
</clipPath>
</defs>
</svg>
